<svg width="53" height="51" viewBox="0 0 53 51" fill="none" xmlns="http://www.w3.org/2000/svg">
<path d="M6.98692 2.24002C1.66103 5.07691 0.794024 8.38662 0.670166 25.0534C0.670166 49.1669 1.66103 50.2308 26.6803 50.2308H42.7818V25.408V0.585163H26.4326C15.1615 0.703369 8.96864 1.17618 6.98692 2.24002ZM34.4834 14.6514C38.0752 17.9611 38.4468 19.025 38.4468 25.408C38.4468 31.791 38.0752 32.8548 34.4834 36.1645C29.1575 41.3655 20.4874 42.1929 14.2945 38.174C8.47321 34.3914 6.61534 30.7271 7.23463 23.8713C8.10164 14.5332 14.1707 9.80506 24.5747 10.5143C29.4052 10.8689 31.3869 11.6963 34.4834 14.6514Z" fill="#666859"/>
<path d="M17.1433 14.2968C11.9413 16.7791 8.72101 23.2803 10.2073 28.2449C11.0743 31.1999 11.9413 31.791 14.4185 31.4364C18.2581 30.9635 27.6713 30.9635 31.5109 31.4364C33.988 31.791 34.855 31.1999 35.722 28.2449C37.3322 23.1621 33.988 16.7791 28.5383 14.2968C23.4601 11.9327 22.0977 11.9327 17.1433 14.2968ZM26.9281 19.1432C29.653 21.5072 29.7768 23.9895 27.052 26.8264C24.5748 29.4269 21.9738 29.5451 19.0012 26.9446C16.2763 24.5805 16.1525 22.0983 18.8774 19.2614C21.3545 16.6609 23.9555 16.5427 26.9281 19.1432Z" fill="#666859"/>
<path d="M45.259 7.08638C45.259 12.1691 45.3829 12.4055 48.9748 12.4055C51.0804 12.4055 52.6905 11.8145 52.6905 11.2235C52.6905 8.85943 49.0986 3.18565 47.1169 2.59463C45.6306 2.00361 45.259 2.83104 45.259 7.08638Z" fill="#666859"/>
<path d="M45.259 19.4978C45.259 23.9895 45.5067 24.2259 48.9748 24.2259C52.4428 24.2259 52.6905 23.9895 52.6905 19.4978C52.6905 15.006 52.4428 14.7696 48.9748 14.7696C45.5067 14.7696 45.259 15.006 45.259 19.4978Z" fill="#666859"/>
<path d="M45.259 31.3181C45.259 35.8099 45.5067 36.0463 48.9748 36.0463C52.4428 36.0463 52.6905 35.8099 52.6905 31.3181C52.6905 26.8264 52.4428 26.59 48.9748 26.59C45.5067 26.59 45.259 26.8264 45.259 31.3181Z" fill="#666859"/>
<path d="M45.259 43.7295C45.259 47.9849 45.6306 48.8123 47.1169 48.2213C49.0986 47.6303 52.6905 41.9565 52.6905 39.5924C52.6905 39.0014 51.0804 38.4104 48.9748 38.4104C45.3829 38.4104 45.259 38.6468 45.259 43.7295Z" fill="#666859"/>
</svg>
