<svg width="57" height="56" viewBox="0 0 57 56" fill="none" xmlns="http://www.w3.org/2000/svg">
<path d="M24.4419 0.857562C20.6996 2.45249 17.9779 6.32589 17.8645 10.1993C17.6377 13.617 17.9779 14.0727 23.0811 15.6676C27.8441 17.1486 28.9781 17.1486 33.8545 15.6676C38.8443 13.9588 39.1845 13.7309 38.9577 10.0854C38.6175 3.4778 30.5658 -1.76268 24.4419 0.857562Z" fill="#666859"/>
<path d="M3.12195 16.4651C2.66834 16.9208 2.32812 18.7436 2.32812 20.5663C2.32812 22.8448 2.89515 23.7562 4.3694 23.7562C7.54472 23.7562 9.13238 26.0347 9.13238 30.5916C9.13238 35.1486 7.54472 37.427 4.256 37.427C2.44153 37.427 2.21472 38.2245 2.55493 43.3511L2.89515 49.389L9.92621 50.1865C13.782 50.6422 19.3388 52.0092 22.1739 53.2624L27.3905 55.5409L27.0503 37.6549L26.71 19.8828L22.1739 18.5157C16.05 16.8069 4.14259 15.5537 3.12195 16.4651Z" fill="#666859"/>
<path d="M42.0196 16.9208C38.6175 17.4904 34.3081 18.4018 32.6071 19.0853L29.5452 20.3385V37.8827V55.5409L34.6484 53.2624C37.4835 52.0092 43.0403 50.6422 46.896 50.1865L53.9271 49.389L54.2673 43.3511C54.6075 38.2245 54.3807 37.427 52.5662 37.427C49.2775 37.427 47.6898 35.1486 47.6898 30.5916C47.6898 26.0347 49.2775 23.7562 52.5662 23.7562C54.2673 23.7562 54.6075 23.0727 54.2673 19.9967C53.9271 15.7815 52.3394 15.4398 42.0196 16.9208Z" fill="#666859"/>
<path d="M0.513613 27.6296C-0.733834 30.8195 0.513613 34.5789 2.7817 34.5789C5.84361 34.5789 7.77149 31.1612 6.18383 28.541C4.48276 26.0347 1.30744 25.4651 0.513613 27.6296Z" fill="#666859"/>
<path d="M51.3187 27.4018C48.2568 30.4777 51.3187 36.1739 55.1744 34.6929C56.3085 34.2372 56.7621 32.8701 56.5353 30.3638C56.1951 26.3764 53.7002 25.0094 51.3187 27.4018Z" fill="#666859"/>
</svg>
