<svg width="40" height="40" viewBox="0 0 40 40" fill="none" xmlns="http://www.w3.org/2000/svg">
<path d="M4.99725 1.80057C4.37707 2.42359 3.93408 3.66962 3.93408 4.73766C3.93408 8.65378 9.24991 10.3448 11.0218 7.05173C12.2622 4.64866 12.1736 3.75863 10.4903 2.15658C8.89552 0.465524 6.5034 0.287519 4.99725 1.80057Z" fill="#365A3C"/>
<path d="M29.2727 2.69058C28.564 3.84761 27.7666 5.62767 27.4122 6.6957C26.8806 8.65376 27.0578 8.74277 31.8421 8.74277H36.8921L36.2719 5.80568C35.9175 4.29263 35.2087 2.42357 34.7658 1.80055C33.3482 0.109496 30.6903 0.55451 29.2727 2.69058Z" fill="#365A3C"/>
<path d="M3.49103 11.5909C0.744525 13.1039 0.390137 14.0829 0.390137 20.0461C0.390137 23.9622 0.744525 25.7423 1.6305 26.2763C2.51647 26.8103 3.04805 28.9464 3.22524 33.2185C3.40244 38.0247 3.75683 39.4487 4.81999 39.4487C5.88316 39.4487 6.23754 38.0247 6.41474 32.9515C6.59193 29.4804 7.03492 26.5433 7.38931 26.5433C7.83229 26.5433 8.36387 29.3024 8.54107 32.6845C8.89546 39.3597 9.33844 40.4278 11.4648 39.6267C12.4393 39.1817 12.7937 37.6687 12.7937 32.8625C12.7937 29.4804 13.2367 26.3653 13.6797 26.0983C14.2113 25.8313 14.5657 22.8052 14.5657 19.4231C14.5657 14.0829 14.2999 13.1039 12.6165 11.9469C10.313 10.2558 6.06035 10.1668 3.49103 11.5909Z" fill="#365A3C"/>
<path d="M29.0956 11.2349C26.792 12.7479 26.0833 16.219 26.0833 26.4543C26.0833 37.6687 26.4376 39.8938 28.2982 39.8938C29.6271 39.8938 30.5131 37.9357 30.5131 34.9096C30.5131 31.4385 32.1079 32.4175 32.4622 36.1556C32.8166 40.6948 35.2973 40.6948 35.6517 36.1556C35.9175 33.4856 36.2719 32.7735 37.6895 32.7735C38.9298 32.7735 39.3728 32.1505 39.3728 30.1034C39.3728 24.6743 37.3351 13.5489 36.0061 12.0359C34.6772 10.5228 30.8675 9.98882 29.0956 11.2349Z" fill="#365A3C"/>
<path d="M18.7298 17.287C18.3754 17.6431 18.1096 18.7111 18.1096 19.6011C18.1096 20.7582 18.7298 21.2032 20.4131 21.2032C22.2737 21.2032 22.6281 20.8472 22.3623 19.2451C22.0965 17.198 19.9702 16.13 18.7298 17.287Z" fill="#365A3C"/>
<path d="M17.2236 24.2293C16.0718 25.6533 16.8692 39.8938 18.1095 39.8938C18.4639 39.8938 19.0841 38.0247 19.4385 35.6216C20.1473 31.1715 20.3245 31.2605 21.2104 36.6006C22.0078 41.6738 23.1596 39.8048 23.8683 32.3285C24.4885 24.9413 23.7797 22.9832 20.3245 22.9832C19.2613 22.9832 17.8437 23.5172 17.2236 24.2293Z" fill="#365A3C"/>
</svg>
