<svg width="54" height="47" viewBox="0 0 54 47" fill="none" xmlns="http://www.w3.org/2000/svg">
<path d="M32.657 10.4888L20.6821 20.8319L25.8818 25.7849L30.9238 30.5923L40.2201 22.2887C48.0984 15.0048 53.9283 7.86657 53.9283 5.24438C53.9283 3.7876 48.8862 -1.90735e-05 46.6803 -1.90735e-05C45.4198 -1.90735e-05 39.1172 4.66166 32.657 10.4888ZM45.2622 14.4221C43.2139 16.4616 42.5836 16.3159 39.4323 13.548C36.5962 10.7801 36.4386 10.0517 38.1718 8.01225C40.0626 5.97276 40.5353 6.11844 44.0017 9.03199C47.3105 11.9455 47.4681 12.3826 45.2622 14.4221Z" fill="#365A3C"/>
<path d="M2.10715 1.53861C-1.24652 4.71218 0.835069 7.66689 18.5286 24.0819C28.3583 33.1649 36.6846 41.5913 37.0316 42.6856C38.188 46.0781 43.7389 47.7196 48.5959 46.1875C53.2217 44.7649 53.9155 43.4517 50.4462 42.5762C49.1742 42.2479 47.5551 40.4969 46.8613 38.6366C46.0518 36.4479 44.5484 35.0253 42.8137 34.5875C41.3104 34.2592 40.0383 33.3838 40.0383 32.8366C40.0383 30.9762 7.31112 0.22541 5.34517 0.22541C4.30438 0.22541 2.91666 0.772579 2.10715 1.53861ZM37.0316 31.414C40.0383 35.7913 37.2628 37.98 32.7527 34.8064C30.9024 33.4932 30.9024 32.946 32.1745 30.9762C34.1405 28.0215 34.7187 28.131 37.0316 31.414Z" fill="#365A3C"/>
<path d="M13.1486 26.6216C6.84597 32.8858 -0.0868721 44.6856 1.64634 46.4338C3.69468 48.3276 17.4028 41.4807 23.8629 35.508L31.2685 28.5154L26.6991 24.1451C24.1781 21.8143 21.8146 19.7748 21.1843 19.7748C20.7117 19.7748 17.0877 22.834 13.1486 26.6216ZM11.888 38.1302C13.4637 40.024 13.4637 40.6067 11.5729 41.7721C6.68841 44.6856 4.32494 43.0832 6.37328 38.1302C7.63379 35.2166 9.20944 35.2166 11.888 38.1302Z" fill="#365A3C"/>
</svg>
