<svg width="53" height="51" viewBox="0 0 53 51" fill="none" xmlns="http://www.w3.org/2000/svg">
<path d="M6.98716 2.24002C1.66127 5.07691 0.794268 8.38662 0.67041 25.0534C0.67041 49.1669 1.66127 50.2308 26.6806 50.2308H42.7821V25.408V0.585163H26.4328C15.1618 0.703369 8.96889 1.17618 6.98716 2.24002ZM34.4836 14.6514C38.0755 17.9611 38.4471 19.025 38.4471 25.408C38.4471 31.791 38.0755 32.8548 34.4836 36.1645C29.1577 41.3655 20.4877 42.1929 14.2948 38.174C8.47346 34.3914 6.61559 30.7271 7.23488 23.8713C8.10188 14.5332 14.1709 9.80506 24.575 10.5143C29.4054 10.8689 31.3872 11.6963 34.4836 14.6514Z" fill="#D796D0"/>
<path d="M17.1433 14.2968C11.9413 16.7791 8.72101 23.2803 10.2073 28.2449C11.0743 31.1999 11.9413 31.791 14.4185 31.4364C18.2581 30.9635 27.6713 30.9635 31.5109 31.4364C33.988 31.791 34.855 31.1999 35.722 28.2449C37.3322 23.1621 33.988 16.7791 28.5383 14.2968C23.4601 11.9327 22.0977 11.9327 17.1433 14.2968ZM26.9281 19.1432C29.653 21.5072 29.7768 23.9895 27.052 26.8264C24.5748 29.4269 21.9738 29.5451 19.0012 26.9446C16.2763 24.5805 16.1525 22.0983 18.8774 19.2614C21.3545 16.6609 23.9555 16.5427 26.9281 19.1432Z" fill="#D796D0"/>
<path d="M45.2593 7.08638C45.2593 12.1691 45.3831 12.4055 48.975 12.4055C51.0806 12.4055 52.6907 11.8145 52.6907 11.2235C52.6907 8.85943 49.0989 3.18565 47.1171 2.59463C45.6309 2.00361 45.2593 2.83104 45.2593 7.08638Z" fill="#D796D0"/>
<path d="M45.2593 19.4978C45.2593 23.9895 45.507 24.2259 48.975 24.2259C52.443 24.2259 52.6907 23.9895 52.6907 19.4978C52.6907 15.006 52.443 14.7696 48.975 14.7696C45.507 14.7696 45.2593 15.006 45.2593 19.4978Z" fill="#D796D0"/>
<path d="M45.2593 31.3181C45.2593 35.8099 45.507 36.0463 48.975 36.0463C52.443 36.0463 52.6907 35.8099 52.6907 31.3181C52.6907 26.8264 52.443 26.59 48.975 26.59C45.507 26.59 45.2593 26.8264 45.2593 31.3181Z" fill="#D796D0"/>
<path d="M45.2593 43.7295C45.2593 47.9849 45.6309 48.8123 47.1171 48.2213C49.0989 47.6303 52.6907 41.9565 52.6907 39.5924C52.6907 39.0014 51.0806 38.4104 48.975 38.4104C45.3831 38.4104 45.2593 38.6468 45.2593 43.7295Z" fill="#D796D0"/>
</svg>
