<svg width="40" height="40" viewBox="0 0 40 40" fill="none" xmlns="http://www.w3.org/2000/svg">
<path d="M4.99774 1.80057C4.37756 2.42359 3.93457 3.66962 3.93457 4.73766C3.93457 8.65378 9.25039 10.3448 11.0223 7.05173C12.2627 4.64866 12.1741 3.75863 10.4908 2.15658C8.89601 0.465524 6.50389 0.287519 4.99774 1.80057Z" fill="#719CBB"/>
<path d="M29.2735 2.69058C28.5647 3.84761 27.7673 5.62767 27.4129 6.6957C26.8814 8.65376 27.0585 8.74277 31.8428 8.74277H36.8928L36.2726 5.80568C35.9183 4.29263 35.2095 2.42357 34.7665 1.80055C33.3489 0.109496 30.691 0.55451 29.2735 2.69058Z" fill="#719CBB"/>
<path d="M3.49152 11.5909C0.745013 13.1039 0.390625 14.0829 0.390625 20.0461C0.390625 23.9622 0.745013 25.7423 1.63098 26.2763C2.51695 26.8103 3.04854 28.9464 3.22573 33.2185C3.40293 38.0247 3.75731 39.4487 4.82048 39.4487C5.88364 39.4487 6.23803 38.0247 6.41523 32.9515C6.59242 29.4804 7.03541 26.5433 7.38979 26.5433C7.83278 26.5433 8.36436 29.3024 8.54156 32.6845C8.89594 39.3597 9.33893 40.4278 11.4653 39.6267C12.4398 39.1817 12.7942 37.6687 12.7942 32.8625C12.7942 29.4804 13.2372 26.3653 13.6802 26.0983C14.2118 25.8313 14.5662 22.8052 14.5662 19.4231C14.5662 14.0829 14.3004 13.1039 12.617 11.9469C10.3135 10.2558 6.06084 10.1668 3.49152 11.5909Z" fill="#719CBB"/>
<path d="M29.0963 11.2349C26.7928 12.7479 26.084 16.219 26.084 26.4543C26.084 37.6687 26.4384 39.8938 28.2989 39.8938C29.6279 39.8938 30.5138 37.9357 30.5138 34.9096C30.5138 31.4385 32.1086 32.4175 32.463 36.1556C32.8174 40.6948 35.2981 40.6948 35.6525 36.1556C35.9183 33.4856 36.2726 32.7735 37.6902 32.7735C38.9306 32.7735 39.3735 32.1505 39.3735 30.1034C39.3735 24.6743 37.3358 13.5489 36.0069 12.0359C34.6779 10.5228 30.8682 9.98882 29.0963 11.2349Z" fill="#719CBB"/>
<path d="M18.73 17.287C18.3757 17.6431 18.1099 18.7111 18.1099 19.6011C18.1099 20.7582 18.73 21.2032 20.4134 21.2032C22.2739 21.2032 22.6283 20.8472 22.3625 19.2451C22.0967 17.198 19.9704 16.13 18.73 17.287Z" fill="#719CBB"/>
<path d="M17.2241 24.2293C16.0723 25.6533 16.8697 39.8938 18.11 39.8938C18.4644 39.8938 19.0846 38.0247 19.439 35.6216C20.1478 31.1715 20.3249 31.2605 21.2109 36.6006C22.0083 41.6738 23.1601 39.8048 23.8688 32.3285C24.489 24.9413 23.7802 22.9832 20.3249 22.9832C19.2618 22.9832 17.8442 23.5172 17.2241 24.2293Z" fill="#719CBB"/>
</svg>
